<svg width="115" height="24" viewBox="0 0 115 24" fill="none" xmlns="http://www.w3.org/2000/svg">
<path d="M107.401 5.57821C106.508 5.57821 105.723 5.7668 105.048 6.14398C104.374 6.52116 103.808 7.01745 103.351 7.63285C102.914 8.24825 102.577 8.95299 102.339 9.74705C102.12 10.5213 102.011 11.3153 102.011 12.1293C102.011 12.9432 102.12 13.7472 102.339 14.5412C102.577 15.3154 102.914 16.0103 103.351 16.6257C103.808 17.2411 104.374 17.7374 105.048 18.1145C105.723 18.4917 106.508 18.6803 107.401 18.6803C108.294 18.6803 109.078 18.4917 109.753 18.1145C110.428 17.7374 110.984 17.2411 111.421 16.6257C111.877 16.0103 112.215 15.3154 112.433 14.5412C112.671 13.7472 112.791 12.9432 112.791 12.1293C112.791 11.3153 112.671 10.5213 112.433 9.74705C112.215 8.95299 111.877 8.24825 111.421 7.63285C110.984 7.01745 110.428 6.52116 109.753 6.14398C109.078 5.7668 108.294 5.57821 107.401 5.57821ZM107.401 4C108.572 4 109.604 4.21837 110.498 4.65511C111.411 5.09184 112.175 5.67746 112.791 6.41198C113.406 7.14649 113.872 8.01003 114.19 9.00262C114.508 9.97535 114.667 11.0176 114.667 12.1293C114.667 13.2409 114.508 14.2931 114.19 15.2857C113.872 16.2584 113.406 17.112 112.791 17.8465C112.175 18.581 111.411 19.1667 110.498 19.6034C109.604 20.0203 108.572 20.2287 107.401 20.2287C106.23 20.2287 105.187 20.0203 104.274 19.6034C103.381 19.1667 102.627 18.581 102.011 17.8465C101.396 17.112 100.929 16.2584 100.612 15.2857C100.294 14.2931 100.135 13.2409 100.135 12.1293C100.135 11.0176 100.294 9.97535 100.612 9.00262C100.929 8.01003 101.396 7.14649 102.011 6.41198C102.627 5.67746 103.381 5.09184 104.274 4.65511C105.187 4.21837 106.23 4 107.401 4Z" fill="#404040"/>
<path d="M84.8858 4.44666H86.7618V7.09686H86.8213C87.1787 6.16383 87.8139 5.41939 88.7271 4.86355C89.6403 4.28785 90.6428 4 91.7346 4C92.8066 4 93.6999 4.13896 94.4146 4.41688C95.1491 4.69481 95.7347 5.09184 96.1714 5.60799C96.6082 6.10428 96.9159 6.71968 97.0945 7.45419C97.2732 8.1887 97.3625 9.01254 97.3625 9.92572V19.8118H95.4865V10.2235C95.4865 9.56839 95.427 8.96291 95.3079 8.40707C95.1888 7.83137 94.9803 7.33508 94.6826 6.91819C94.3848 6.50131 93.9778 6.17376 93.4617 5.93554C92.9654 5.69732 92.3401 5.57821 91.5857 5.57821C90.8313 5.57821 90.1564 5.71717 89.5609 5.99509C88.9852 6.25316 88.4889 6.62042 88.072 7.09686C87.6749 7.55345 87.3573 8.10929 87.1191 8.7644C86.9007 9.39965 86.7816 10.0945 86.7618 10.8488V19.8118H84.8858V4.44666Z" fill="#404040"/>
<path d="M69.296 9.1515C69.3555 8.25818 69.5441 7.48397 69.8617 6.82886C70.1794 6.17376 70.6062 5.63776 71.1422 5.22088C71.698 4.80399 72.3432 4.49629 73.0777 4.29777C73.8122 4.09926 74.6261 4 75.5194 4C76.1944 4 76.8694 4.06948 77.5443 4.20844C78.2193 4.32755 78.8247 4.56577 79.3607 4.9231C79.8967 5.28043 80.3335 5.78665 80.6709 6.44175C81.0084 7.07701 81.1772 7.91078 81.1772 8.94306V17.1021C81.1772 17.8565 81.5444 18.2336 82.2789 18.2336C82.4973 18.2336 82.6958 18.1939 82.8745 18.1145V19.6927C82.6561 19.7324 82.4576 19.7622 82.2789 19.7821C82.1201 19.8019 81.9117 19.8118 81.6536 19.8118C81.1771 19.8118 80.79 19.7523 80.4923 19.6332C80.2143 19.4942 79.996 19.3056 79.8372 19.0674C79.6784 18.8292 79.5692 18.5513 79.5096 18.2336C79.4699 17.8962 79.4501 17.5289 79.4501 17.1319H79.3905C79.053 17.6282 78.7056 18.0748 78.3483 18.4719C78.0108 18.849 77.6237 19.1667 77.187 19.4247C76.7701 19.6828 76.2837 19.8813 75.7279 20.0203C75.1919 20.1593 74.5467 20.2287 73.7924 20.2287C73.0777 20.2287 72.4027 20.1394 71.7675 19.9607C71.1521 19.8019 70.6062 19.5438 70.1297 19.1865C69.6732 18.8093 69.3059 18.3428 69.028 17.787C68.7699 17.2113 68.6409 16.5363 68.6409 15.7621C68.6409 14.6901 68.8791 13.8563 69.3555 13.2608C69.832 12.6454 70.4573 12.1789 71.2315 11.8613C72.0256 11.5436 72.909 11.3253 73.8817 11.2062C74.8743 11.0672 75.8768 10.9382 76.8892 10.819C77.2862 10.7793 77.6336 10.7297 77.9314 10.6702C78.2292 10.6106 78.4773 10.5113 78.6758 10.3724C78.8744 10.2136 79.0233 10.0051 79.1225 9.74705C79.2416 9.48898 79.3012 9.15151 79.3012 8.73462C79.3012 8.09937 79.192 7.58322 78.9736 7.18619C78.7751 6.76931 78.4873 6.44175 78.1101 6.20353C77.7528 5.96531 77.3259 5.8065 76.8297 5.72709C76.3532 5.62784 75.8371 5.57821 75.2812 5.57821C74.0901 5.57821 73.1174 5.86606 72.363 6.44175C71.6087 6.9976 71.2117 7.90085 71.1719 9.1515H69.296ZM79.3012 11.4146H79.2416C79.1225 11.633 78.8942 11.7918 78.5567 11.891C78.2193 11.9903 77.9215 12.0598 77.6634 12.0995C76.8694 12.2384 76.0455 12.3675 75.1919 12.4866C74.3581 12.5858 73.5938 12.7447 72.899 12.963C72.2042 13.1814 71.6285 13.499 71.1719 13.9159C70.7352 14.3129 70.5168 14.8886 70.5168 15.643C70.5168 16.1194 70.6062 16.5463 70.7848 16.9234C70.9834 17.2808 71.2414 17.5984 71.5591 17.8763C71.8767 18.1344 72.2439 18.3329 72.6608 18.4719C73.0777 18.6108 73.5045 18.6803 73.9412 18.6803C74.6559 18.6803 75.3408 18.5711 75.9959 18.3528C76.651 18.1344 77.2168 17.8168 77.6932 17.3999C78.1895 16.983 78.5766 16.4768 78.8545 15.8812C79.1523 15.2857 79.3012 14.6107 79.3012 13.8564V11.4146Z" fill="#404040"/>
<path d="M64.8723 9.27062C64.6143 8.11922 64.1378 7.21597 63.443 6.56086C62.7482 5.90576 61.7755 5.57821 60.5248 5.57821C59.6315 5.57821 58.8474 5.7668 58.1724 6.14398C57.4975 6.52116 56.9317 7.01745 56.4751 7.63285C56.0384 8.24825 55.7009 8.95299 55.4627 9.74705C55.2443 10.5213 55.1351 11.3153 55.1351 12.1293C55.1351 12.9432 55.2443 13.7472 55.4627 14.5412C55.7009 15.3154 56.0384 16.0103 56.4751 16.6257C56.9317 17.2411 57.4975 17.7374 58.1724 18.1145C58.8474 18.4917 59.6315 18.6803 60.5248 18.6803C61.1005 18.6803 61.6464 18.5711 62.1626 18.3528C62.6787 18.1344 63.1353 17.8366 63.5323 17.4594C63.9294 17.0624 64.2569 16.5959 64.515 16.0599C64.7731 15.5239 64.9319 14.9383 64.9914 14.303H66.8674C66.6093 16.1691 65.9245 17.6282 64.8128 18.6803C63.7011 19.7126 62.2718 20.2287 60.5248 20.2287C59.3536 20.2287 58.3114 20.0203 57.3982 19.6034C56.5049 19.1667 55.7505 18.581 55.1351 17.8465C54.5197 17.112 54.0532 16.2584 53.7356 15.2857C53.418 14.2931 53.2592 13.2409 53.2592 12.1293C53.2592 11.0176 53.418 9.97535 53.7356 9.00262C54.0532 8.01003 54.5197 7.14649 55.1351 6.41198C55.7505 5.67746 56.5049 5.09184 57.3982 4.65511C58.3114 4.21837 59.3536 4 60.5248 4C62.1725 4 63.5621 4.43674 64.6937 5.31021C65.8451 6.18368 66.5299 7.50382 66.7483 9.27062H64.8723Z" fill="#404040"/>
<path d="M45.1641 4.44658H46.8912V8.04966H46.9507C47.4271 6.799 48.1617 5.8362 49.1542 5.16124C50.1667 4.48628 51.3677 4.17858 52.7573 4.23814V6.11412C51.9037 6.07442 51.1295 6.19353 50.4347 6.47145C49.7399 6.72952 49.1344 7.1067 48.6182 7.603C48.1219 8.09929 47.7348 8.69484 47.4569 9.38965C47.179 10.0646 47.04 10.809 47.04 11.623V19.8118H45.1641V4.44658Z" fill="#404040"/>
<path d="M29.5441 9.1515C29.6037 8.25818 29.7923 7.48397 30.1099 6.82886C30.4275 6.17376 30.8543 5.63776 31.3903 5.22088C31.9462 4.80399 32.5914 4.49629 33.3259 4.29777C34.0604 4.09926 34.8743 4 35.7676 4C36.4426 4 37.1175 4.06948 37.7925 4.20844C38.4674 4.32755 39.0729 4.56577 39.6089 4.9231C40.1449 5.28043 40.5816 5.78665 40.9191 6.44175C41.2566 7.07701 41.4253 7.91078 41.4253 8.94306V17.1021C41.4253 17.8565 41.7926 18.2336 42.5271 18.2336C42.7454 18.2336 42.944 18.1939 43.1226 18.1145V19.6927C42.9043 19.7324 42.7057 19.7622 42.5271 19.7821C42.3683 19.8019 42.1598 19.8118 41.9018 19.8118C41.4253 19.8118 41.0382 19.7523 40.7404 19.6332C40.4625 19.4942 40.2441 19.3056 40.0853 19.0674C39.9265 18.8292 39.8173 18.5513 39.7578 18.2336C39.7181 17.8962 39.6982 17.5289 39.6982 17.1319H39.6387C39.3012 17.6282 38.9538 18.0748 38.5965 18.4719C38.259 18.849 37.8719 19.1667 37.4351 19.4247C37.0183 19.6828 36.5319 19.8813 35.9761 20.0203C35.4401 20.1593 34.7949 20.2287 34.0405 20.2287C33.3259 20.2287 32.6509 20.1394 32.0157 19.9607C31.4003 19.8019 30.8543 19.5438 30.3779 19.1865C29.9213 18.8093 29.5541 18.3428 29.2761 17.787C29.0181 17.2113 28.889 16.5363 28.889 15.7621C28.889 14.6901 29.1273 13.8563 29.6037 13.2608C30.0801 12.6454 30.7055 12.1789 31.4797 11.8613C32.2737 11.5436 33.1571 11.3253 34.1299 11.2062C35.1224 11.0672 36.1249 10.9382 37.1374 10.819C37.5344 10.7793 37.8818 10.7297 38.1796 10.6702C38.4774 10.6106 38.7255 10.5113 38.924 10.3724C39.1225 10.2136 39.2714 10.0051 39.3707 9.74705C39.4898 9.48898 39.5493 9.15151 39.5493 8.73462C39.5493 8.09937 39.4402 7.58322 39.2218 7.18619C39.0233 6.76931 38.7354 6.44175 38.3582 6.20353C38.0009 5.96531 37.5741 5.8065 37.0778 5.72709C36.6014 5.62784 36.0852 5.57821 35.5294 5.57821C34.3383 5.57821 33.3656 5.86606 32.6112 6.44175C31.8569 6.9976 31.4598 7.90085 31.4201 9.1515H29.5441ZM39.5493 11.4146H39.4898C39.3707 11.633 39.1424 11.7918 38.8049 11.891C38.4674 11.9903 38.1697 12.0598 37.9116 12.0995C37.1175 12.2384 36.2937 12.3675 35.4401 12.4866C34.6063 12.5858 33.842 12.7447 33.1472 12.963C32.4524 13.1814 31.8767 13.499 31.4201 13.9159C30.9834 14.3129 30.765 14.8886 30.765 15.643C30.765 16.1194 30.8543 16.5463 31.033 16.9234C31.2315 17.2808 31.4896 17.5984 31.8072 17.8763C32.1248 18.1344 32.4921 18.3329 32.909 18.4719C33.3259 18.6108 33.7527 18.6803 34.1894 18.6803C34.9041 18.6803 35.5889 18.5711 36.2441 18.3528C36.8992 18.1344 37.4649 17.8168 37.9414 17.3999C38.4377 16.983 38.8248 16.4768 39.1027 15.8812C39.4005 15.2857 39.5493 14.6107 39.5493 13.8564V11.4146Z" fill="#404040"/>
<path d="M18.2223 10.2223C18.2223 10.7132 17.8243 11.1111 17.3334 11.1111L13.7779 11.1111C13.2869 11.1111 12.889 10.7132 12.889 10.2223L12.889 0.888918C12.889 0.397998 13.2869 2.90417e-05 13.7779 2.89988e-05L17.3334 2.86879e-05C17.8243 2.8645e-05 18.2223 0.397998 18.2223 0.888918L18.2223 10.2223Z" fill="#CA662C"/>
<path d="M24 23.04C24 23.5702 23.6352 24 23.1852 24L19.9259 24C19.4759 24 19.1111 23.5702 19.1111 23.04L19.1111 12.96C19.1111 12.4298 19.4759 12 19.9259 12L23.1852 12C23.6352 12 24 12.4298 24 12.96L24 23.04Z" fill="#CA662C"/>
<path d="M24 10.2223C24 10.7132 23.602 11.1111 23.1111 11.1111L20 11.1111C19.5091 11.1111 19.1111 10.7132 19.1111 10.2223L19.1111 6.6667C19.1111 6.17578 19.5091 5.77781 20 5.77781L23.1111 5.77781C23.602 5.77781 24 6.17578 24 6.6667L24 10.2223Z" fill="#CA662C"/>
<path d="M23.1111 12C23.602 12 24.0034 12.3985 23.9671 12.8881C23.8142 14.9487 23.1312 16.9404 21.9776 18.6668C20.659 20.6402 18.7849 22.1783 16.5922 23.0865C14.3995 23.9948 11.9867 24.2324 9.65894 23.7694C7.33117 23.3064 5.19299 22.1635 3.51476 20.4853C1.83654 18.807 0.693652 16.6688 0.230632 14.3411C-0.232389 12.0133 0.00525158 9.6005 0.9135 7.40779C1.82175 5.21507 3.35981 3.34093 5.3332 2.02235C7.05959 0.86881 9.05131 0.185794 11.1119 0.0328895C11.6015 -0.00343787 12 0.397958 12 0.888877L12 3.9111C12 4.40202 11.6005 4.79433 11.1134 4.85479C10.0035 4.99251 8.93661 5.38753 7.99992 6.01341C6.8159 6.80455 5.89306 7.92904 5.34811 9.24467C4.80316 10.5603 4.66057 12.008 4.93839 13.4046C5.2162 14.8013 5.90193 16.0842 6.90886 17.0912C7.9158 18.0981 9.19871 18.7838 10.5954 19.0616C11.992 19.3395 13.4397 19.1969 14.7553 18.6519C16.0709 18.107 17.1954 17.1841 17.9866 16.0001C18.6124 15.0634 19.0075 13.9965 19.1452 12.8866C19.2056 12.3995 19.598 12 20.0889 12L23.1111 12Z" fill="#CA662C"/>
</svg>
