<svg width="73" height="15" viewBox="0 0 73 15" fill="none" xmlns="http://www.w3.org/2000/svg">
<path d="M66.5288 1.97626C65.7801 1.97626 65.123 2.1343 64.5574 2.45039C63.9918 2.76647 63.5176 3.18237 63.135 3.69809C62.769 4.21381 62.4862 4.80439 62.2866 5.46984C62.1036 6.11865 62.0121 6.78409 62.0121 7.46617C62.0121 8.14825 62.1036 8.82202 62.2866 9.48746C62.4862 10.1363 62.769 10.7185 63.135 11.2343C63.5176 11.75 63.9918 12.1659 64.5574 12.482C65.123 12.798 65.7801 12.9561 66.5288 12.9561C67.2774 12.9561 67.9345 12.798 68.5001 12.482C69.0658 12.1659 69.5316 11.75 69.8976 11.2343C70.2802 10.7185 70.563 10.1363 70.746 9.48746C70.9456 8.82202 71.0455 8.14825 71.0455 7.46617C71.0455 6.78409 70.9456 6.11865 70.746 5.46984C70.563 4.80439 70.2802 4.21381 69.8976 3.69809C69.5316 3.18237 69.0658 2.76647 68.5001 2.45039C67.9345 2.1343 67.2774 1.97626 66.5288 1.97626ZM66.5288 0.653687C67.5103 0.653687 68.3754 0.836684 69.124 1.20268C69.8893 1.56867 70.5297 2.05944 71.0455 2.67497C71.5612 3.29051 71.9521 4.01418 72.2183 4.84598C72.4845 5.66115 72.6176 6.53455 72.6176 7.46617C72.6176 8.39779 72.4845 9.27951 72.2183 10.1113C71.9521 10.9265 71.5612 11.6418 71.0455 12.2574C70.5297 12.8729 69.8893 13.3637 69.124 13.7297C68.3754 14.079 67.5103 14.2537 66.5288 14.2537C65.5472 14.2537 64.6738 14.079 63.9086 13.7297C63.1599 13.3637 62.5278 12.8729 62.0121 12.2574C61.4963 11.6418 61.1054 10.9265 60.8392 10.1113C60.573 9.27951 60.4399 8.39779 60.4399 7.46617C60.4399 6.53455 60.573 5.66115 60.8392 4.84598C61.1054 4.01418 61.4963 3.29051 62.0121 2.67497C62.5278 2.05944 63.1599 1.56867 63.9086 1.20268C64.6738 0.836684 65.5472 0.653687 66.5288 0.653687Z" fill="#404040"/>
<path d="M47.6607 1.028H49.2328V3.24892H49.2827C49.5821 2.46702 50.1145 1.84317 50.8798 1.37736C51.645 0.89491 52.4851 0.653687 53.4001 0.653687C54.2985 0.653687 55.0471 0.770139 55.646 1.00304C56.2615 1.23595 56.7523 1.56867 57.1183 2.00121C57.4843 2.41711 57.7422 2.93283 57.8919 3.54837C58.0416 4.1639 58.1165 4.8543 58.1165 5.61956V13.9043H56.5444V5.86911C56.5444 5.32011 56.4944 4.81271 56.3946 4.3469C56.2948 3.86445 56.1201 3.44855 55.8706 3.09919C55.6211 2.74984 55.28 2.47534 54.8475 2.27571C54.4316 2.07607 53.9075 1.97626 53.2754 1.97626C52.6432 1.97626 52.0776 2.09271 51.5785 2.32562C51.096 2.54189 50.6801 2.84965 50.3308 3.24892C49.998 3.63155 49.7319 4.09736 49.5322 4.64635C49.3492 5.17871 49.2494 5.76097 49.2328 6.39314V13.9043H47.6607V1.028Z" fill="#404040"/>
<path d="M34.5958 4.97076C34.6457 4.22213 34.8038 3.57332 35.0699 3.02433C35.3361 2.47534 35.6938 2.02617 36.143 1.67681C36.6088 1.32745 37.1494 1.06959 37.765 0.903228C38.3805 0.736867 39.0626 0.653687 39.8112 0.653687C40.3769 0.653687 40.9425 0.711913 41.5081 0.828365C42.0737 0.928182 42.5811 1.12782 43.0303 1.42727C43.4795 1.72672 43.8455 2.15094 44.1283 2.69993C44.4111 3.23228 44.5525 3.931 44.5525 4.79608V11.6335C44.5525 12.2657 44.8603 12.5818 45.4758 12.5818C45.6588 12.5818 45.8252 12.5485 45.9749 12.482V13.8045C45.7919 13.8378 45.6255 13.8628 45.4758 13.8794C45.3427 13.896 45.1681 13.9043 44.9518 13.9043C44.5525 13.9043 44.2281 13.8544 43.9786 13.7546C43.7457 13.6382 43.5627 13.4801 43.4296 13.2805C43.2965 13.0809 43.205 12.848 43.1551 12.5818C43.1218 12.299 43.1052 11.9912 43.1052 11.6585H43.0553C42.7725 12.0744 42.4813 12.4487 42.1819 12.7814C41.8991 13.0975 41.5747 13.3637 41.2087 13.5799C40.8593 13.7962 40.4517 13.9626 39.9859 14.079C39.5367 14.1955 38.9961 14.2537 38.3639 14.2537C37.765 14.2537 37.1994 14.1788 36.667 14.0291C36.1513 13.896 35.6938 13.6798 35.2945 13.3803C34.9119 13.0642 34.6041 12.6733 34.3712 12.2075C34.1549 11.725 34.0468 11.1594 34.0468 10.5106C34.0468 9.61223 34.2464 8.91351 34.6457 8.41443C35.045 7.89871 35.569 7.50776 36.2178 7.24158C36.8833 6.97541 37.6236 6.79241 38.4387 6.69259C39.2706 6.57614 40.1107 6.46801 40.9591 6.36819C41.2918 6.33492 41.583 6.29333 41.8325 6.24342C42.0821 6.19351 42.29 6.11033 42.4564 5.99388C42.6227 5.86079 42.7475 5.68611 42.8307 5.46984C42.9305 5.25357 42.9804 4.97076 42.9804 4.6214C42.9804 4.08904 42.8889 3.6565 42.7059 3.32378C42.5395 2.97442 42.2983 2.69993 41.9822 2.50029C41.6828 2.30066 41.3251 2.16757 40.9092 2.10103C40.5099 2.01785 40.0774 1.97626 39.6116 1.97626C38.6134 1.97626 37.7983 2.21748 37.1661 2.69993C36.5339 3.16574 36.2012 3.92268 36.1679 4.97076H34.5958ZM42.9804 6.86727H42.9305C42.8307 7.05027 42.6394 7.18336 42.3566 7.26654C42.0737 7.34972 41.8242 7.40795 41.6079 7.44122C40.9425 7.55767 40.2521 7.66581 39.5367 7.76562C38.838 7.8488 38.1975 7.98189 37.6153 8.16489C37.033 8.34789 36.5505 8.61406 36.1679 8.96342C35.8019 9.29614 35.6189 9.77859 35.6189 10.4108C35.6189 10.81 35.6938 11.1677 35.8435 11.4838C36.0099 11.7832 36.2261 12.0494 36.4923 12.2823C36.7585 12.4986 37.0663 12.665 37.4156 12.7814C37.765 12.8979 38.1227 12.9561 38.4887 12.9561C39.0876 12.9561 39.6615 12.8646 40.2105 12.6816C40.7595 12.4986 41.2336 12.2324 41.6329 11.8831C42.0488 11.5337 42.3732 11.1095 42.6061 10.6104C42.8556 10.1113 42.9804 9.54569 42.9804 8.91351V6.86727Z" fill="#404040"/>
<path d="M30.8888 5.07057C30.6725 4.10568 30.2732 3.34873 29.691 2.79974C29.1087 2.25075 28.2935 1.97626 27.2455 1.97626C26.4968 1.97626 25.8397 2.1343 25.2741 2.45039C24.7085 2.76647 24.2343 3.18237 23.8517 3.69809C23.4857 4.21381 23.2029 4.80439 23.0033 5.46984C22.8203 6.11865 22.7288 6.78409 22.7288 7.46617C22.7288 8.14825 22.8203 8.82202 23.0033 9.48746C23.2029 10.1363 23.4857 10.7185 23.8517 11.2343C24.2343 11.75 24.7085 12.1659 25.2741 12.482C25.8397 12.798 26.4968 12.9561 27.2455 12.9561C27.7279 12.9561 28.1854 12.8646 28.6179 12.6816C29.0505 12.4986 29.4331 12.2491 29.7658 11.933C30.0986 11.6002 30.3731 11.2093 30.5893 10.7601C30.8056 10.3109 30.9387 9.82018 30.9886 9.28783H32.5607C32.3444 10.8516 31.7705 12.0744 30.8389 12.9561C29.9072 13.8212 28.7094 14.2537 27.2455 14.2537C26.2639 14.2537 25.3905 14.079 24.6253 13.7297C23.8767 13.3637 23.2445 12.8729 22.7288 12.2574C22.213 11.6418 21.8221 10.9265 21.5559 10.1113C21.2897 9.27951 21.1566 8.39779 21.1566 7.46617C21.1566 6.53455 21.2897 5.66115 21.5559 4.84598C21.8221 4.01418 22.213 3.29051 22.7288 2.67497C23.2445 2.05944 23.8767 1.56867 24.6253 1.20268C25.3905 0.836684 26.2639 0.653687 27.2455 0.653687C28.6263 0.653687 29.7908 1.01968 30.739 1.75167C31.7039 2.48366 32.2779 3.58996 32.4609 5.07057H30.8888Z" fill="#404040"/>
<path d="M14.3728 1.02798H15.8201V4.04743H15.87C16.2693 2.99936 16.8848 2.1925 17.7166 1.62688C18.5651 1.06125 19.5716 0.80339 20.7361 0.853299V2.42541C20.0207 2.39214 19.3719 2.49196 18.7897 2.72486C18.2074 2.94113 17.7 3.25722 17.2675 3.67312C16.8516 4.08902 16.5271 4.5881 16.2942 5.17037C16.0613 5.736 15.9449 6.35985 15.9449 7.04193V13.9043H14.3728V1.02798Z" fill="#404040"/>
<path d="M1.28297 4.97076C1.33288 4.22213 1.49092 3.57332 1.7571 3.02433C2.02328 2.47534 2.38095 2.02617 2.83013 1.67681C3.29594 1.32745 3.83661 1.06959 4.45215 0.903228C5.06768 0.736867 5.74976 0.653687 6.49839 0.653687C7.06402 0.653687 7.62965 0.711913 8.19527 0.828365C8.7609 0.928182 9.2683 1.12782 9.71748 1.42727C10.1667 1.72672 10.5326 2.15094 10.8155 2.69993C11.0983 3.23228 11.2397 3.931 11.2397 4.79608V11.6335C11.2397 12.2657 11.5474 12.5818 12.163 12.5818C12.346 12.5818 12.5123 12.5485 12.6621 12.482V13.8045C12.4791 13.8378 12.3127 13.8628 12.163 13.8794C12.0299 13.896 11.8552 13.9043 11.6389 13.9043C11.2397 13.9043 10.9153 13.8544 10.6657 13.7546C10.4328 13.6382 10.2498 13.4801 10.1167 13.2805C9.98365 13.0809 9.89216 12.848 9.84225 12.5818C9.80898 12.299 9.79234 11.9912 9.79234 11.6585H9.74243C9.45962 12.0744 9.16848 12.4487 8.86903 12.7814C8.58622 13.0975 8.26182 13.3637 7.89582 13.5799C7.54646 13.7962 7.13888 13.9626 6.67307 14.079C6.22389 14.1955 5.68322 14.2537 5.05105 14.2537C4.45215 14.2537 3.88652 14.1788 3.35417 14.0291C2.83845 13.896 2.38095 13.6798 1.98169 13.3803C1.59906 13.0642 1.29129 12.6733 1.05838 12.2075C0.842113 11.725 0.733978 11.1594 0.733978 10.5106C0.733978 9.61223 0.933612 8.91351 1.33288 8.41443C1.73214 7.89871 2.25618 7.50776 2.90499 7.24158C3.57043 6.97541 4.31074 6.79241 5.12591 6.69259C5.95772 6.57614 6.79784 6.46801 7.64628 6.36819C7.979 6.33492 8.27014 6.29333 8.51968 6.24342C8.76922 6.19351 8.97717 6.11033 9.14353 5.99388C9.30989 5.86079 9.43466 5.68611 9.51784 5.46984C9.61766 5.25357 9.66757 4.97076 9.66757 4.6214C9.66757 4.08904 9.57607 3.6565 9.39307 3.32378C9.22671 2.97442 8.98549 2.69993 8.6694 2.50029C8.36995 2.30066 8.01228 2.16757 7.59637 2.10103C7.19711 2.01785 6.76457 1.97626 6.29876 1.97626C5.30059 1.97626 4.48542 2.21748 3.85325 2.69993C3.22108 3.16574 2.88835 3.92268 2.85508 4.97076H1.28297ZM9.66757 6.86727H9.61766C9.51784 7.05027 9.32653 7.18336 9.04371 7.26654C8.7609 7.34972 8.51136 7.40795 8.29509 7.44122C7.62964 7.55767 6.93925 7.66581 6.22389 7.76562C5.52518 7.8488 4.88469 7.98189 4.30242 8.16489C3.72016 8.34789 3.23771 8.61406 2.85508 8.96342C2.48909 9.29614 2.30609 9.77859 2.30609 10.4108C2.30609 10.81 2.38095 11.1677 2.53068 11.4838C2.69704 11.7832 2.91331 12.0494 3.17949 12.2823C3.44566 12.4986 3.75343 12.665 4.10279 12.7814C4.45215 12.8979 4.80982 12.9561 5.17582 12.9561C5.77472 12.9561 6.34866 12.8646 6.89766 12.6816C7.44665 12.4986 7.92078 12.2324 8.32004 11.8831C8.73595 11.5337 9.06035 11.1095 9.29326 10.6104C9.5428 10.1113 9.66757 9.54569 9.66757 8.91351V6.86727Z" fill="#404040"/>
</svg>
